<svg xmlns="http://www.w3.org/2000/svg" width="51.807" height="51.806" viewBox="0 0 51.807 51.806">
  <g id="Group_609" data-name="Group 609" transform="translate(-139.657 -98.598)">
    <path id="Path_1192" data-name="Path 1192" d="M843.7,1057.543a4.711,4.711,0,1,1-4.71-4.709A4.71,4.71,0,0,1,843.7,1057.543Z" transform="translate(-694.621 -954.236)" fill="#1a1818"/>
    <path id="Path_1193" data-name="Path 1193" d="M870.782,1057.542a4.71,4.71,0,1,1-4.71-4.708A4.711,4.711,0,0,1,870.782,1057.542Z" transform="translate(-707.533 -954.236)" fill="#1a1818"/>
    <path id="Path_1194" data-name="Path 1194" d="M897.761,1057.542a4.711,4.711,0,1,1-4.711-4.708A4.711,4.711,0,0,1,897.761,1057.542Z" transform="translate(-720.393 -954.236)" fill="#1a1818"/>
    <path id="Path_1195" data-name="Path 1195" d="M924.7,1057.542a4.711,4.711,0,1,1-4.71-4.708A4.71,4.71,0,0,1,924.7,1057.542Z" transform="translate(-733.234 -954.236)" fill="#1a1818"/>
    <path id="Path_1196" data-name="Path 1196" d="M843.7,1084.543a4.711,4.711,0,1,1-4.71-4.709A4.711,4.711,0,0,1,843.7,1084.543Z" transform="translate(-694.621 -967.108)" fill="#1a1818"/>
    <path id="Path_1197" data-name="Path 1197" d="M870.865,1084.542a4.711,4.711,0,1,1-4.71-4.708A4.711,4.711,0,0,1,870.865,1084.542Z" transform="translate(-707.572 -967.108)" fill="#1a1818"/>
    <path id="Path_1198" data-name="Path 1198" d="M897.761,1084.542a4.711,4.711,0,1,1-4.711-4.708A4.711,4.711,0,0,1,897.761,1084.542Z" transform="translate(-720.393 -967.108)" fill="#1a1818"/>
    <path id="Path_1199" data-name="Path 1199" d="M924.7,1084.542a4.711,4.711,0,1,1-4.71-4.708A4.71,4.71,0,0,1,924.7,1084.542Z" transform="translate(-733.234 -967.108)" fill="#1a1818"/>
    <path id="Path_1200" data-name="Path 1200" d="M843.7,1111.543a4.71,4.71,0,1,1-4.71-4.709A4.71,4.71,0,0,1,843.7,1111.543Z" transform="translate(-694.621 -979.979)" fill="#1a1818"/>
    <path id="Path_1201" data-name="Path 1201" d="M871.2,1111.542a4.71,4.71,0,1,1-4.71-4.708A4.71,4.71,0,0,1,871.2,1111.542Z" transform="translate(-707.732 -979.979)" fill="#1a1818"/>
    <path id="Path_1202" data-name="Path 1202" d="M843.7,1138.461a4.71,4.71,0,1,1-4.71-4.709A4.71,4.71,0,0,1,843.7,1138.461Z" transform="translate(-694.621 -992.811)" fill="#1a1818"/>
    <path id="Path_1203" data-name="Path 1203" d="M870.657,1138.46a4.711,4.711,0,1,1-4.711-4.708A4.711,4.711,0,0,1,870.657,1138.46Z" transform="translate(-707.473 -992.811)" fill="#1a1818"/>
    <path id="Path_1204" data-name="Path 1204" d="M911.723,1118.609a11.775,11.775,0,1,1-11.776-11.774A11.776,11.776,0,0,1,911.723,1118.609Z" transform="translate(-720.314 -979.979)" fill="#6e57fd"/>
  </g>
</svg>
