<svg xmlns="http://www.w3.org/2000/svg" width="122.124" height="116.105" viewBox="0 0 122.124 116.105">
  <g id="Group_653" data-name="Group 653" transform="translate(-1361.481 -5825.481)">
    <circle id="Ellipse_145" data-name="Ellipse 145" cx="12.811" cy="12.811" r="12.811" transform="matrix(0.012, -1, 1, 0.012, 1363, 5852.619)" fill="none" stroke="#000" stroke-miterlimit="10" stroke-width="3"/>
    <path id="Path_528" data-name="Path 528" d="M3361.8,1187.2a12.81,12.81,0,1,1-12.617-13A12.809,12.809,0,0,1,3361.8,1187.2Z" transform="translate(-1879.7 4653.479)" fill="none" stroke="#000" stroke-miterlimit="10" stroke-width="3"/>
    <path id="Path_529" data-name="Path 529" d="M3237.149,1249.341a12.81,12.81,0,1,1-12.81-12.811A12.81,12.81,0,0,1,3237.149,1249.341Z" transform="translate(-1848.527 4634.496)" fill="none" stroke="#000" stroke-miterlimit="10" stroke-width="3"/>
    <path id="Path_530" data-name="Path 530" d="M3300.2,1249.531a12.81,12.81,0,1,1-12.618-13A12.81,12.81,0,0,1,3300.2,1249.531Z" transform="translate(-1864.628 4634.496)" fill="none" stroke="#000" stroke-miterlimit="10" stroke-width="3"/>
    <path id="Path_534" data-name="Path 534" d="M3300.2,1249.531a12.81,12.81,0,1,1-12.618-13A12.81,12.81,0,0,1,3300.2,1249.531Z" transform="translate(-1864.628 4591.148)" fill="none" stroke="#000" stroke-miterlimit="10" stroke-width="3"/>
    <path id="Path_531" data-name="Path 531" d="M3361.8,1249.531a12.81,12.81,0,1,1-12.617-13A12.809,12.809,0,0,1,3361.8,1249.531Z" transform="translate(-1879.7 4634.496)" fill="none" stroke="#000" stroke-miterlimit="10" stroke-width="3"/>
    <path id="Path_532" data-name="Path 532" d="M3237.149,1310.944a12.81,12.81,0,1,1-12.81-12.81A12.809,12.809,0,0,1,3237.149,1310.944Z" transform="translate(-1848.527 4616.332)" fill="none" stroke="#000" stroke-width="3"/>
    <path id="Path_533" data-name="Path 533" d="M3300.2,1311.135a12.81,12.81,0,1,1-12.618-13A12.809,12.809,0,0,1,3300.2,1311.135Z" transform="translate(-1864.628 4616.332)" fill="none" stroke="#000" stroke-miterlimit="10" stroke-width="3"/>
    <path id="Path_527" data-name="Path 527" d="M3361.8,1311.135a12.81,12.81,0,1,1-12.617-13A12.808,12.808,0,0,1,3361.8,1311.135Z" transform="translate(-1879.7 4616.332)" fill="none" stroke="#000" stroke-miterlimit="10" stroke-width="3"/>
  </g>
</svg>
