<svg xmlns="http://www.w3.org/2000/svg" width="262" height="89" viewBox="0 0 262 89">
  <g id="Group_618" data-name="Group 618" transform="translate(-1381.633 -7253)">
    <text id="_IMMERSION_SCHOOL_2020_ALL_RIGHTS_RESERVED" data-name="© IMMERSION SCHOOL  2020 / ALL RIGHTS RESERVED" transform="translate(1381.633 7339)" fill="#fff" font-size="10" font-family="SegoeUI, Segoe UI" letter-spacing="0.04em"><tspan x="0" y="0" xml:space="preserve">© IMMERSION SCHOOL  2020 / ALL RIGHTS RESERVED</tspan></text>
    <g id="Group_614" data-name="Group 614" transform="translate(-141 2627)">
      <path id="Path_1273" data-name="Path 1273" d="M843.7,1057.543a4.711,4.711,0,1,1-4.71-4.709A4.71,4.71,0,0,1,843.7,1057.543Z" transform="translate(688.722 3573.166)" fill="#fff"/>
      <path id="Path_1274" data-name="Path 1274" d="M870.782,1057.542a4.71,4.71,0,1,1-4.71-4.708A4.711,4.711,0,0,1,870.782,1057.542Z" transform="translate(675.81 3573.166)" fill="#fff"/>
      <path id="Path_1275" data-name="Path 1275" d="M897.761,1057.542a4.711,4.711,0,1,1-4.711-4.708A4.711,4.711,0,0,1,897.761,1057.542Z" transform="translate(662.95 3573.166)" fill="#fff"/>
      <path id="Path_1276" data-name="Path 1276" d="M924.7,1057.542a4.711,4.711,0,1,1-4.71-4.708A4.71,4.71,0,0,1,924.7,1057.542Z" transform="translate(650.108 3573.166)" fill="#fff"/>
      <path id="Path_1277" data-name="Path 1277" d="M843.7,1084.543a4.711,4.711,0,1,1-4.71-4.709A4.711,4.711,0,0,1,843.7,1084.543Z" transform="translate(688.722 3560.295)" fill="#fff"/>
      <path id="Path_1278" data-name="Path 1278" d="M870.865,1084.542a4.711,4.711,0,1,1-4.71-4.708A4.711,4.711,0,0,1,870.865,1084.542Z" transform="translate(675.771 3560.295)" fill="#fff"/>
      <path id="Path_1279" data-name="Path 1279" d="M897.761,1084.542a4.711,4.711,0,1,1-4.711-4.708A4.711,4.711,0,0,1,897.761,1084.542Z" transform="translate(662.95 3560.295)" fill="#fff"/>
      <path id="Path_1280" data-name="Path 1280" d="M924.7,1084.542a4.711,4.711,0,1,1-4.71-4.708A4.71,4.71,0,0,1,924.7,1084.542Z" transform="translate(650.108 3560.295)" fill="#fff"/>
      <path id="Path_1281" data-name="Path 1281" d="M843.7,1111.543a4.71,4.71,0,1,1-4.71-4.709A4.71,4.71,0,0,1,843.7,1111.543Z" transform="translate(688.722 3547.424)" fill="#fff"/>
      <path id="Path_1282" data-name="Path 1282" d="M871.2,1111.542a4.71,4.71,0,1,1-4.71-4.708A4.71,4.71,0,0,1,871.2,1111.542Z" transform="translate(675.61 3547.424)" fill="#fff"/>
      <path id="Path_1283" data-name="Path 1283" d="M843.7,1138.461a4.71,4.71,0,1,1-4.71-4.709A4.71,4.71,0,0,1,843.7,1138.461Z" transform="translate(688.722 3534.592)" fill="#fff"/>
      <path id="Path_1284" data-name="Path 1284" d="M870.657,1138.46a4.711,4.711,0,1,1-4.711-4.708A4.711,4.711,0,0,1,870.657,1138.46Z" transform="translate(675.87 3534.592)" fill="#fff"/>
      <path id="Path_1285" data-name="Path 1285" d="M911.723,1118.609a11.775,11.775,0,1,1-11.776-11.774A11.776,11.776,0,0,1,911.723,1118.609Z" transform="translate(663.028 3547.423)" fill="#ffcf0e"/>
      <text id="IMMERSION" transform="translate(1595.343 4661)" fill="#fff" font-size="30" font-family="SegoeUI, Segoe UI" letter-spacing="0.05em"><tspan x="0" y="0">IMMERSION</tspan></text>
    </g>
  </g>
</svg>
